<svg width="17" height="17" viewBox="0 0 17 17" fill="none" xmlns="http://www.w3.org/2000/svg">
<path d="M14.8678 10.625H2.13025C1.54423 10.625 1.04391 10.4175 0.629275 10.0024C0.214641 9.5874 0.00732422 9.08659 0.00732422 8.5C0.00732422 7.91341 0.214641 7.4126 0.629275 6.99756C1.04391 6.58252 1.54423 6.375 2.13025 6.375H14.8678C15.4538 6.375 15.9542 6.58252 16.3688 6.99756C16.7834 7.4126 16.9907 7.91341 16.9907 8.5C16.9907 9.08659 16.7834 9.5874 16.3688 10.0024C15.9542 10.4175 15.4538 10.625 14.8678 10.625ZM14.8678 4.25H2.13025C1.54423 4.25 1.04391 4.04248 0.629275 3.62744C0.214641 3.2124 0.00732422 2.71159 0.00732422 2.125C0.00732422 1.53841 0.214641 1.0376 0.629275 0.622559C1.04391 0.20752 1.54423 0 2.13025 0H14.8678C15.4538 0 15.9542 0.20752 16.3688 0.622559C16.7834 1.0376 16.9907 1.53841 16.9907 2.125C16.9907 2.71159 16.7834 3.2124 16.3688 3.62744C15.9542 4.04248 15.4538 4.25 14.8678 4.25ZM2.13025 12.75H14.8678C15.4538 12.75 15.9542 12.9575 16.3688 13.3726C16.7834 13.7876 16.9907 14.2884 16.9907 14.875C16.9907 15.4616 16.7834 15.9624 16.3688 16.3774C15.9542 16.7925 15.4538 17 14.8678 17H2.13025C1.54423 17 1.04391 16.7925 0.629275 16.3774C0.214641 15.9624 0.00732422 15.4616 0.00732422 14.875C0.00732422 14.2884 0.214641 13.7876 0.629275 13.3726C1.04391 12.9575 1.54423 12.75 2.13025 12.75Z" fill="#73738D"/>
</svg>
