<svg width="98" height="167" viewBox="0 0 98 167" fill="none" xmlns="http://www.w3.org/2000/svg">
<path d="M8.34556 18.0751H0.221206V0H41.7166V18.0751H33.6796V59.2341H8.34556V18.0751Z" fill="#F4EEE1"/>
<path d="M69.2345 60.9763C60.6151 60.9763 54.0924 59.4809 49.6662 56.4902C45.2691 53.4704 43.0706 49.0133 43.0706 43.1189V0H68.0552V39.9395C68.0552 41.7688 68.4629 42.6834 69.2782 42.6834C70.0936 42.6834 70.5012 41.7833 70.5012 39.983V0H95.3548V43.1189C95.3548 49.0133 93.1562 53.4704 88.7592 56.4902C84.3621 59.4809 77.8539 60.9763 69.2345 60.9763Z" fill="#F4EEE1"/>
<path d="M8.34556 80.8678H0.221206V62.7927H41.7166V80.8678H33.6796V122.027H8.34556V80.8678Z" fill="#F4EEE1"/>
<path d="M42.1533 86.2686C42.1533 78.0513 44.4684 71.8521 49.0984 67.6708C53.7284 63.4606 60.586 61.3554 69.6713 61.3554C78.7566 61.3554 85.6143 63.4606 90.2443 67.6708C94.8743 71.8811 97.1893 78.1094 97.1893 86.3557V98.2896C97.1893 106.594 94.8743 112.866 90.2443 117.105C85.6143 121.344 78.7566 123.464 69.6713 123.464C60.6151 123.464 53.772 121.344 49.142 117.105C44.5412 112.866 42.2116 106.594 42.1533 98.2896V86.2686ZM68.4483 101.643C68.4483 102.485 68.856 102.906 69.6713 102.906C70.4867 102.906 70.8943 102.485 70.8943 101.643V82.9585C70.8943 82.1164 70.4867 81.6954 69.6713 81.6954C68.856 81.6954 68.4483 82.1164 68.4483 82.9585V101.643Z" fill="#F4EEE1"/>
<path d="M3.07982 131.499H0V125.234H14.5984V131.499H11.5493V167H3.07982V131.499Z" fill="#F4EEE1"/>
<path d="M15.6763 125.234H24.1766V167H15.6763V125.234Z" fill="#F4EEE1"/>
<path d="M25.7781 125.234H39.6989V131.008H34.3708V144.09H38.5902V148.451H34.3708V161.38H39.7913V167H25.7781V125.234Z" fill="#F4EEE1"/>
<path d="M40.8693 125.234H49.7392L50.4783 131.069L52.4186 151.522H52.8498L51.6178 125.234H58.9786V167H50.1087L49.3696 161.257L47.1829 139.33L46.7517 139.299L48.1684 167H40.8693V125.234Z" fill="#F4EEE1"/>
<path d="M60.5801 125.234H69.6964C72.8173 125.234 75.1682 125.951 76.7492 127.384C78.3507 128.796 79.1515 130.895 79.1515 133.679V158.524C79.1515 161.329 78.3507 163.448 76.7492 164.881C75.1682 166.294 72.8276 167 69.7272 167H60.5801V125.234ZM69.5732 160.274C69.9633 160.274 70.22 160.162 70.3432 159.937C70.4869 159.691 70.5588 159.23 70.5588 158.555V133.741C70.5588 133.045 70.4869 132.574 70.3432 132.328C70.22 132.082 69.9633 131.96 69.5732 131.96H68.8033V160.274H69.5732Z" fill="#F4EEE1"/>
<path d="M89.3149 161.104H87.467L87.2822 167H78.7819L83.7404 125.234H93.0107L98 167H89.4997L89.3149 161.104ZM89.1609 156.344L88.5141 136.873H88.2062L87.621 156.344H89.1609Z" fill="#F4EEE1"/>
</svg>
