<svg width="28" height="28" viewBox="0 0 28 28" fill="none" xmlns="http://www.w3.org/2000/svg">
<path d="M11.6668 21C13.7376 20.9996 15.7488 20.3064 17.38 19.0307L22.5087 24.1594L24.1583 22.5097L19.0297 17.381C20.306 15.7496 20.9997 13.738 21.0002 11.6667C21.0002 6.52054 16.813 2.33337 11.6668 2.33337C6.52066 2.33337 2.3335 6.52054 2.3335 11.6667C2.3335 16.8129 6.52066 21 11.6668 21ZM11.6668 4.66671C15.5273 4.66671 18.6668 7.80621 18.6668 11.6667C18.6668 15.5272 15.5273 18.6667 11.6668 18.6667C7.80633 18.6667 4.66683 15.5272 4.66683 11.6667C4.66683 7.80621 7.80633 4.66671 11.6668 4.66671Z" fill="#73738D"/>
</svg>
