<svg width="218" height="372" viewBox="0 0 218 372" fill="none" xmlns="http://www.w3.org/2000/svg">
<path d="M18.5646 40.2631H0.492069V0H92.7981V40.2631H74.9198V131.947H18.5646V40.2631Z" fill="#21C090"/>
<path d="M154.012 135.827C134.838 135.827 120.328 132.496 110.482 125.834C100.701 119.108 95.8101 109.179 95.8101 96.0494V0H151.388V88.967C151.388 93.0418 152.295 95.0792 154.109 95.0792C155.922 95.0792 156.829 93.0741 156.829 89.064V0H212.116V96.0494C212.116 109.179 207.225 119.108 197.444 125.834C187.663 132.496 173.185 135.827 154.012 135.827Z" fill="#21C090"/>
<path d="M18.5646 180.137H0.492069V139.874H92.7981V180.137H74.9198V271.82H18.5646V180.137Z" fill="#21C090"/>
<path d="M93.7697 192.167C93.7697 173.863 98.9194 160.054 109.219 150.74C119.518 141.361 134.773 136.672 154.983 136.672C175.193 136.672 190.448 141.361 200.747 150.74C211.047 160.118 216.197 173.992 216.197 192.361V218.945C216.197 237.443 211.047 251.414 200.747 260.857C190.448 270.3 175.193 275.022 154.983 275.022C134.838 275.022 119.615 270.3 109.316 260.857C99.0813 251.414 93.8992 237.443 93.7697 218.945V192.167ZM152.263 226.415C152.263 228.291 153.169 229.229 154.983 229.229C156.797 229.229 157.704 228.291 157.704 226.415V184.794C157.704 182.918 156.797 181.98 154.983 181.98C153.169 181.98 152.263 182.918 152.263 184.794V226.415Z" fill="#21C090"/>
<path d="M6.85104 292.92H0V278.965H32.4739V292.92H25.6914V372H6.85104V292.92Z" fill="#21C090"/>
<path d="M34.8718 278.965H53.7806V372H34.8718V278.965Z" fill="#21C090"/>
<path d="M57.3432 278.965H88.3099V291.825H76.4576V320.967H85.8435V330.681H76.4576V359.481H88.5154V372H57.3432V278.965Z" fill="#21C090"/>
<path d="M90.9133 278.965H110.644L112.288 291.962L116.605 337.522H117.564L114.823 278.965H131.197V372H111.466L109.822 359.208L104.958 310.364L103.999 310.296L107.15 372H90.9133V278.965Z" fill="#21C090"/>
<path d="M134.76 278.965H155.039C161.981 278.965 167.211 280.561 170.728 283.753C174.29 286.9 176.072 291.575 176.072 297.777V353.119C176.072 359.367 174.29 364.087 170.728 367.28C167.211 370.427 162.004 372 155.107 372H134.76V278.965ZM154.765 357.019C155.633 357.019 156.204 356.768 156.478 356.266C156.797 355.719 156.957 354.693 156.957 353.188V297.914C156.957 296.363 156.797 295.314 156.478 294.767C156.204 294.22 155.633 293.946 154.765 293.946H153.052V357.019H154.765Z" fill="#21C090"/>
<path d="M198.68 358.866H194.569L194.158 372H175.25L186.28 278.965H206.901L218 372H199.091L198.68 358.866ZM198.338 348.262L196.899 304.891H196.214L194.912 348.262H198.338Z" fill="#21C090"/>
</svg>
